<svg width="1448" height="56" viewBox="0 0 1448 56" fill="none" xmlns="http://www.w3.org/2000/svg">
<g filter="url(#filter0_d_968_42158)">
<path fill-rule="evenodd" clip-rule="evenodd" d="M1444 24L1363.6 28C1284.4 32 1123.6 40 964 38C804.4 36 643.6 24 484 24C324.4 24 163.6 36 84.3999 42L4 48V0H84.3999C163.6 0 324.4 0 484 0C643.6 0 804.4 0 964 0C1123.6 0 1284.4 0 1363.6 0H1444V24Z" fill="white" fill-opacity="0.3" shape-rendering="crispEdges"/>
<path fill-rule="evenodd" clip-rule="evenodd" d="M1444 24L1363.6 28C1284.4 32 1123.6 40 964 38C804.4 36 643.6 24 484 24C324.4 24 163.6 36 84.3999 42L4 48V0H84.3999C163.6 0 324.4 0 484 0C643.6 0 804.4 0 964 0C1123.6 0 1284.4 0 1363.6 0H1444V24Z" stroke="black" shape-rendering="crispEdges"/>
</g>
<defs>
<filter id="filter0_d_968_42158" x="0" y="0" width="1448" height="56" filterUnits="userSpaceOnUse" color-interpolation-filters="sRGB">
<feFlood flood-opacity="0" result="BackgroundImageFix"/>
<feColorMatrix in="SourceAlpha" type="matrix" values="0 0 0 0 0 0 0 0 0 0 0 0 0 0 0 0 0 0 127 0" result="hardAlpha"/>
<feOffset dy="4"/>
<feGaussianBlur stdDeviation="2"/>
<feComposite in2="hardAlpha" operator="out"/>
<feColorMatrix type="matrix" values="0 0 0 0 0 0 0 0 0 0 0 0 0 0 0 0 0 0 0.25 0"/>
<feBlend mode="normal" in2="BackgroundImageFix" result="effect1_dropShadow_968_42158"/>
<feBlend mode="normal" in="SourceGraphic" in2="effect1_dropShadow_968_42158" result="shape"/>
</filter>
</defs>
</svg>
